<svg xmlns="http://www.w3.org/2000/svg" version="1.1" xmlns:xlink="http://www.w3.org/1999/xlink" width="2000" height="1500" viewBox="0 0 2000 1500"><rect width="2000" height="1500" x="0" y="0" id="background" stroke="transparent" fill="#e7644d"></rect><svg xml:space="preserve" width="1500" height="1125" data-version="2" data-id="lg_6sB4rlKoOowmlNyTPm" viewBox="0 0 357 350" x="250" y="187.5"><rect width="100%" height="100%" fill="transparent"></rect><path fill="none" stroke="#e64a2e" d="M4.015 346.02V3.98h178.69q82.67 0 126.47 39.6 43.81 39.6 43.81 129.19 0 173.25-177.21 173.25zm180.18-198h-13.86v85.64h13.86q5.94 0 10.14-3.96 4.21-3.96 4.21-10.4v-57.42q0-5.94-4.21-9.9-4.2-3.96-10.14-3.96z"></path><path fill="#f1e3d9" d="M4.015 346.02V3.98h178.69q82.67 0 126.47 39.6 43.81 39.6 43.81 129.19 0 173.25-177.21 173.25zm180.18-198h-13.86v85.64h13.86q5.94 0 10.14-3.96 4.21-3.96 4.21-10.4v-57.42q0-5.94-4.21-9.9-4.2-3.96-10.14-3.96"></path></svg></svg>