<?xml version="1.0" standalone="no"?>
<!DOCTYPE svg PUBLIC "-//W3C//DTD SVG 20010904//EN"
 "http://www.w3.org/TR/2001/REC-SVG-20010904/DTD/svg10.dtd">
<svg version="1.0" xmlns="http://www.w3.org/2000/svg"
 width="1024.000000pt" height="768.000000pt" viewBox="0 0 1024.000000 768.000000"
 preserveAspectRatio="xMidYMid meet">

<g transform="translate(0.000000,768.000000) scale(0.100000,-0.100000)"
fill="#000000" stroke="none">
<path d="M0 3840 l0 -3840 5120 0 5120 0 0 3840 0 3840 -5120 0 -5120 0 0
-3840z m6200 283 l0 -1118 -350 3 -350 3 0 -286 0 -285 -405 0 -405 0 2 423 3
422 403 3 402 2 0 975 0 975 350 0 350 0 0 -1117z m-1062 -10 c2 -215 0 -273
-10 -273 -7 -1 -130 -2 -273 -3 l-260 -2 -3 -547 -2 -548 -275 0 -275 0 0 550
0 550 275 0 275 0 0 275 0 275 273 -2 272 -3 3 -272z"/>
</g>
</svg>
